<svg width="71" height="31" viewBox="0 0 71 31" fill="none" xmlns="http://www.w3.org/2000/svg">
<circle cx="65" cy="24.5" r="6" fill="white"/>
<path d="M53 28.5V30.5H57V28.5H53ZM55 4.5L57 4.5L55 4.5ZM52.5 2L52.5 -4.69126e-05L52.4863 4.69115e-05L52.5 2ZM15.9863 0.250047C14.8818 0.257612 13.9925 1.15915 14 2.2637C14.0076 3.36824 14.9092 4.25752 16.0137 4.24995L15.9863 0.250047ZM57 28.5L57 4.5H53L53 28.5H57ZM57 4.5C57 3.76329 56.7954 2.70274 56.1231 1.76889C55.3773 0.733065 54.1518 0 52.5 0L52.5 4C52.7145 4 52.8012 4.04247 52.8174 4.05086C52.8353 4.06008 52.8526 4.07235 52.8769 4.10611C52.9065 4.14712 52.9412 4.21476 52.9676 4.30725C52.9948 4.40253 53 4.47804 53 4.5L57 4.5ZM52.4863 4.69115e-05L15.9863 0.250047L16.0137 4.24995L52.5137 3.99995L52.4863 4.69115e-05Z" fill="white"/>
<rect x="2" y="10.5" width="52" height="18" rx="9" stroke="white" stroke-width="4"/>
</svg>
